# xmcd
#
# Track frame offsets: 
#        150
#        12788
#        28308
#        48510
#        65751
#        81916
#        107267
#        119021
#        139436
#        161346
#
# Disc length: 2399 seconds
#
# Revision: 0
# Processed by: cddbd v1.5.2PL0 Copyright (c) Steve Scherf et al.
# Submitted via: ExactAudioCopyFreeDBPlugin 1.0
#
DISCID=88095d0a
DTITLE=Rory Verbrugge and The Ruckus - Dead Man's Dance
DYEAR=2016
DGENRE=Country
TTITLE0=Bring It On Back (To You)
TTITLE1=Dead Man's Dance
TTITLE2=(All I See Is) The Rain
TTITLE3=Since You've Been Gone
TTITLE4=Messenger's Blues
TTITLE5=Koan
TTITLE6=All Yours
TTITLE7=The Merchant's Lament
TTITLE8=Took Off Running
TTITLE9=I Won't Be
EXTD=
EXTT0=
EXTT1=
EXTT2=
EXTT3=
EXTT4=
EXTT5=
EXTT6=
EXTT7=
EXTT8=
EXTT9=
PLAYORDER=
